<svg width="445" height="126" viewBox="0 0 445 126" fill="none" xmlns="http://www.w3.org/2000/svg">
<path d="M65.1943 90.4897C44.206 102.213 -9.90205 95.5458 9.36227 36.2695C10.3374 34.1904 13.1829 30.5353 16.7636 32.5482C20.3442 34.5611 19.887 38.199 19.2108 39.7663C15.7944 46.7654 11.9711 64.432 24.0099 79.1047C25.7266 81.0334 29.6702 84.236 31.7113 81.6165C33.7525 78.9971 30.6823 76.2322 28.892 75.1772C26.7991 73.3331 22.3741 69.9225 25.9224 65.8034C29.4708 61.6842 54.9088 80.4768 55.8247 86.6911" stroke="white" stroke-width="3.78167" stroke-linecap="round" stroke-linejoin="round"/>
<path d="M72.7251 90.5245C87.8516 101.68 146.498 94.5091 127.233 35.2329C126.258 33.1537 123.413 29.4986 119.832 31.5115C116.251 33.5244 116.709 37.1623 117.385 38.7296C120.801 45.7288 124.625 63.3953 112.586 78.068C110.869 79.9967 106.925 83.1993 104.884 80.5798C102.843 77.9604 105.913 75.1955 107.704 74.1405C109.797 72.2964 114.222 68.8859 110.673 64.7667C107.125 60.6476 81.6868 79.4401 80.7709 85.6544" stroke="white" stroke-width="3.78167" stroke-linecap="round" stroke-linejoin="round"/>
<path d="M161.28 86.7934C158.941 86.7934 157.092 86.1136 155.733 84.754C154.373 83.3944 153.693 81.5454 153.693 79.2068V37.0318C154.292 36.9231 155.243 36.7871 156.549 36.6239C157.854 36.4064 159.105 36.2976 160.301 36.2976C161.552 36.2976 162.64 36.4064 163.564 36.6239C164.543 36.7871 165.359 37.1134 166.011 37.6029C166.664 38.0923 167.153 38.7721 167.48 39.6423C167.806 40.5124 167.969 41.6545 167.969 43.0685V75.2912H186.65C187.031 75.8894 187.384 76.7052 187.711 77.7385C188.037 78.7174 188.2 79.7507 188.2 80.8384C188.2 83.0137 187.738 84.5637 186.813 85.4882C185.889 86.3584 184.665 86.7934 183.142 86.7934H161.28ZM189.6 47.4736C190.144 47.3105 190.987 47.1473 192.129 46.9842C193.326 46.821 194.549 46.7394 195.8 46.7394C196.997 46.7394 198.057 46.821 198.982 46.9842C199.961 47.1473 200.776 47.4736 201.429 47.9631C202.082 48.4525 202.571 49.1323 202.897 50.0025C203.278 50.8182 203.468 51.9059 203.468 53.2655V70.8045C203.468 73.0342 204.012 74.6386 205.1 75.6175C206.188 76.542 207.765 77.0043 209.831 77.0043C211.082 77.0043 212.088 76.8955 212.85 76.678C213.665 76.4604 214.291 76.2429 214.726 76.0253V47.4736C215.27 47.3105 216.113 47.1473 217.255 46.9842C218.451 46.821 219.675 46.7394 220.926 46.7394C222.122 46.7394 223.183 46.821 224.107 46.9842C225.086 47.1473 225.902 47.4736 226.554 47.9631C227.207 48.4525 227.697 49.1323 228.023 50.0025C228.404 50.8182 228.594 51.9059 228.594 53.2655V78.0648C228.594 80.784 227.452 82.8234 225.168 84.183C223.264 85.3794 220.98 86.2768 218.315 86.875C215.705 87.5276 212.85 87.8539 209.75 87.8539C206.813 87.8539 204.094 87.5276 201.592 86.875C199.145 86.2224 197.024 85.2163 195.229 83.8567C193.434 82.4971 192.048 80.7568 191.069 78.6358C190.09 76.4604 189.6 73.85 189.6 70.8045V47.4736ZM252.825 45.6789C255.054 45.6789 257.23 46.0052 259.351 46.6578C261.526 47.2561 263.402 48.1806 264.98 49.4314C266.611 48.3438 268.433 47.4464 270.445 46.7394C272.512 46.0324 274.986 45.6789 277.869 45.6789C279.935 45.6789 281.947 45.9508 283.905 46.4947C285.917 47.0385 287.685 47.9087 289.208 49.1051C290.785 50.2472 292.036 51.7972 292.96 53.755C293.885 55.6584 294.347 57.997 294.347 60.7706V86.4671C293.803 86.6303 292.933 86.7934 291.737 86.9566C290.594 87.1197 289.398 87.2013 288.147 87.2013C286.951 87.2013 285.863 87.1197 284.884 86.9566C283.96 86.7934 283.171 86.4671 282.518 85.9777C281.866 85.4882 281.349 84.8356 280.968 84.0198C280.642 83.1497 280.479 82.0348 280.479 80.6752V61.1784C280.479 59.5469 280.017 58.3777 279.092 57.6707C278.168 56.9093 276.917 56.5286 275.34 56.5286C274.578 56.5286 273.763 56.7189 272.892 57.0996C272.022 57.4259 271.37 57.7794 270.935 58.1601C270.989 58.3777 271.016 58.5952 271.016 58.8127C271.016 58.9759 271.016 59.139 271.016 59.3022V86.4671C270.418 86.6303 269.521 86.7934 268.324 86.9566C267.182 87.1197 266.013 87.2013 264.816 87.2013C263.62 87.2013 262.532 87.1197 261.553 86.9566C260.629 86.7934 259.84 86.4671 259.188 85.9777C258.535 85.4882 258.018 84.8356 257.638 84.0198C257.311 83.1497 257.148 82.0348 257.148 80.6752V61.1784C257.148 59.5469 256.632 58.3777 255.598 57.6707C254.619 56.9093 253.423 56.5286 252.009 56.5286C251.03 56.5286 250.187 56.6917 249.48 57.018C248.773 57.29 248.175 57.5619 247.685 57.8338V86.4671C247.141 86.6303 246.271 86.7934 245.075 86.9566C243.933 87.1197 242.736 87.2013 241.486 87.2013C240.289 87.2013 239.201 87.1197 238.222 86.9566C237.298 86.7934 236.509 86.4671 235.857 85.9777C235.204 85.4882 234.687 84.8356 234.307 84.0198C233.98 83.1497 233.817 82.0348 233.817 80.6752V56.0391C233.817 54.5708 234.116 53.4015 234.715 52.5313C235.367 51.6612 236.237 50.8454 237.325 50.0841C239.174 48.7788 241.458 47.7183 244.178 46.9026C246.951 46.0868 249.833 45.6789 252.825 45.6789ZM299.217 35.8898C299.217 33.8232 299.897 32.0829 301.257 30.6689C302.671 29.2549 304.52 28.5479 306.804 28.5479C309.088 28.5479 310.91 29.2549 312.27 30.6689C313.684 32.0829 314.391 33.8232 314.391 35.8898C314.391 37.9564 313.684 39.6967 312.27 41.1106C310.91 42.5246 309.088 43.2316 306.804 43.2316C304.52 43.2316 302.671 42.5246 301.257 41.1106C299.897 39.6967 299.217 37.9564 299.217 35.8898ZM313.738 86.4671C313.14 86.5759 312.242 86.7119 311.046 86.875C309.904 87.0925 308.735 87.2013 307.538 87.2013C306.342 87.2013 305.254 87.1197 304.275 86.9566C303.351 86.7934 302.562 86.4671 301.909 85.9777C301.257 85.4882 300.74 84.8356 300.359 84.0198C300.033 83.1497 299.87 82.0348 299.87 80.6752V47.4736C300.468 47.3648 301.338 47.2289 302.48 47.0657C303.677 46.8482 304.873 46.7394 306.07 46.7394C307.266 46.7394 308.327 46.821 309.251 46.9842C310.23 47.1473 311.046 47.4736 311.699 47.9631C312.351 48.4525 312.841 49.1323 313.167 50.0025C313.548 50.8182 313.738 51.9059 313.738 53.2655V86.4671ZM344.429 61.4232C344.429 59.7373 343.94 58.5136 342.961 57.7522C342.036 56.9365 340.758 56.5286 339.127 56.5286C338.039 56.5286 336.951 56.6645 335.864 56.9365C334.83 57.2084 333.933 57.6163 333.172 58.1601V86.4671C332.628 86.6303 331.758 86.7934 330.561 86.9566C329.419 87.1197 328.223 87.2013 326.972 87.2013C325.775 87.2013 324.688 87.1197 323.709 86.9566C322.784 86.7934 321.996 86.4671 321.343 85.9777C320.69 85.4882 320.174 84.8356 319.793 84.0198C319.467 83.1497 319.304 82.0348 319.304 80.6752V56.2023C319.304 54.7339 319.603 53.5375 320.201 52.6129C320.854 51.6884 321.724 50.8454 322.811 50.0841C324.661 48.7788 326.972 47.7183 329.745 46.9026C332.573 46.0868 335.701 45.6789 339.127 45.6789C345.272 45.6789 350.004 47.0385 353.321 49.7577C356.638 52.4226 358.297 56.1479 358.297 60.9337V86.4671C357.753 86.6303 356.883 86.7934 355.687 86.9566C354.545 87.1197 353.348 87.2013 352.097 87.2013C350.901 87.2013 349.813 87.1197 348.834 86.9566C347.91 86.7934 347.121 86.4671 346.469 85.9777C345.816 85.4882 345.299 84.8356 344.919 84.0198C344.592 83.1497 344.429 82.0348 344.429 80.6752V61.4232ZM361.887 66.7256C361.887 63.1363 362.431 60.0364 363.519 57.4259C364.606 54.7611 366.102 52.5585 368.005 50.8182C369.963 49.0779 372.22 47.7999 374.776 46.9842C377.387 46.114 380.187 45.6789 383.179 45.6789C384.266 45.6789 385.327 45.7877 386.36 46.0052C387.393 46.1684 388.236 46.3859 388.889 46.6578V33.4425C389.433 33.2793 390.303 33.1162 391.499 32.953C392.696 32.7355 393.92 32.6267 395.17 32.6267C396.367 32.6267 397.427 32.7083 398.352 32.8714C399.331 33.0346 400.147 33.3609 400.799 33.8503C401.452 34.3398 401.941 35.0196 402.267 35.8898C402.594 36.7055 402.757 37.7932 402.757 39.1528V77.82C402.757 80.3761 401.56 82.4155 399.168 83.9383C397.59 84.9716 395.551 85.8689 393.049 86.6303C390.548 87.446 387.665 87.8539 384.402 87.8539C380.867 87.8539 377.686 87.3645 374.858 86.3856C372.084 85.4066 369.719 83.9926 367.761 82.1436C365.857 80.2945 364.389 78.092 363.356 75.5359C362.377 72.9254 361.887 69.9887 361.887 66.7256ZM385.055 56.5286C382.118 56.5286 379.861 57.3715 378.284 59.0575C376.707 60.7434 375.918 63.2994 375.918 66.7256C375.918 70.0975 376.653 72.6535 378.121 74.3938C379.589 76.0797 381.71 76.9227 384.484 76.9227C385.463 76.9227 386.333 76.7867 387.094 76.5148C387.91 76.1885 388.535 75.835 388.971 75.4543V57.5075C387.883 56.8549 386.578 56.5286 385.055 56.5286ZM441.582 74.7201C441.582 78.8533 440.032 82.0892 436.932 84.4277C433.832 86.7662 429.264 87.9355 423.228 87.9355C420.943 87.9355 418.822 87.7724 416.865 87.446C414.907 87.1197 413.221 86.6303 411.807 85.9777C410.447 85.2707 409.36 84.4005 408.544 83.3672C407.782 82.3339 407.402 81.1103 407.402 79.6963C407.402 78.3911 407.674 77.3034 408.217 76.4332C408.761 75.5087 409.414 74.7473 410.175 74.1491C411.752 75.0192 413.547 75.8078 415.559 76.5148C417.626 77.1674 419.992 77.4937 422.656 77.4937C424.342 77.4937 425.62 77.249 426.491 76.7595C427.415 76.2701 427.877 75.6175 427.877 74.8017C427.877 74.0403 427.551 73.4421 426.898 73.007C426.246 72.5719 425.158 72.2185 423.635 71.9465L421.188 71.4571C416.457 70.5325 412.922 69.0914 410.583 67.1335C408.299 65.1213 407.157 62.2661 407.157 58.568C407.157 56.5558 407.592 54.7339 408.462 53.1024C409.332 51.4709 410.556 50.1112 412.133 49.0236C413.71 47.9359 415.587 47.0929 417.762 46.4947C419.992 45.8965 422.439 45.5974 425.104 45.5974C427.116 45.5974 428.992 45.7605 430.733 46.0868C432.527 46.3587 434.077 46.7938 435.382 47.392C436.688 47.9903 437.721 48.7788 438.482 49.7577C439.244 50.6823 439.624 51.7972 439.624 53.1024C439.624 54.3532 439.38 55.4409 438.89 56.3654C438.455 57.2356 437.884 57.9698 437.177 58.568C436.742 58.2961 436.089 58.0242 435.219 57.7522C434.349 57.4259 433.397 57.154 432.364 56.9365C431.331 56.6645 430.27 56.447 429.183 56.2839C428.149 56.1207 427.198 56.0391 426.327 56.0391C424.533 56.0391 423.146 56.2567 422.167 56.6917C421.188 57.0724 420.699 57.6979 420.699 58.568C420.699 59.1662 420.971 59.6557 421.514 60.0364C422.058 60.4171 423.092 60.7706 424.614 61.0969L427.143 61.6679C432.364 62.8644 436.062 64.5231 438.238 66.6441C440.467 68.7107 441.582 71.4027 441.582 74.7201Z" fill="white"/>
<circle cx="306.736" cy="35.2333" r="9.2212" fill="white"/>
<path fill-rule="evenodd" clip-rule="evenodd" d="M308.079 30.1868H305.34V33.8905L301.636 33.8905L301.636 36.6292H305.34V40.3327H308.079V36.6292H311.782V33.8905L308.079 33.8905V30.1868Z" fill="black"/>
<path d="M37.7771 61.1344L68.8057 86.1564C77.0954 77.4814 92.5201 64.4687 95.9518 59.4326C100.805 52.3105 96.323 36.7955 80.636 41.8479C66.8959 48.4028 19.436 69.6431 28.3601 32.5946C37.921 7.07368 64.6161 19.6136 68.8057 32.5946C73.425 18.7314 99.2923 7.49775 108.242 32.5946C109.377 38.7596 108.368 42.8564 105.028 47.6465" stroke="white" stroke-width="3.78167" stroke-linecap="round" stroke-linejoin="round"/>
</svg>
