<svg width="3521" height="994" viewBox="0 0 3521 994" fill="none" xmlns="http://www.w3.org/2000/svg">
<path d="M515 713.5C348.5 806.5 -80.7396 753.61 72.0843 283.371C79.8204 266.877 102.394 237.881 130.799 253.85C159.204 269.818 155.577 298.678 150.213 311.111C123.11 366.635 92.7801 506.784 188.284 623.183C201.902 638.483 233.187 663.889 249.379 643.109C265.572 622.329 241.216 600.395 227.014 592.026C210.41 577.397 175.307 550.341 203.456 517.664C231.605 484.986 433.405 634.068 440.671 683.366" stroke="#48BCFB" stroke-width="30" stroke-linecap="round" stroke-linejoin="round"/>
<path d="M574.742 713.777C694.74 802.276 1159.98 745.387 1007.16 275.148C999.42 258.654 976.846 229.658 948.441 245.626C920.036 261.595 923.663 290.454 929.027 302.888C956.13 358.412 986.46 498.561 890.956 614.96C877.338 630.26 846.053 655.666 829.861 634.886C813.668 614.106 838.024 592.172 852.226 583.803C868.829 569.174 903.933 542.117 875.784 509.44C847.635 476.763 645.835 625.844 638.569 675.142" stroke="#48BCFB" stroke-width="30" stroke-linecap="round" stroke-linejoin="round"/>
<path d="M1277.25 680.941C1258.7 680.941 1244.03 675.549 1233.24 664.763C1222.46 653.977 1217.06 639.308 1217.06 620.757V286.182C1221.81 285.32 1229.36 284.241 1239.71 282.947C1250.07 281.221 1259.99 280.358 1269.48 280.358C1279.41 280.358 1288.03 281.221 1295.37 282.947C1303.13 284.241 1309.61 286.83 1314.78 290.712C1319.96 294.595 1323.84 299.988 1326.43 306.891C1329.02 313.794 1330.32 322.854 1330.32 334.071V589.694H1478.51C1481.53 594.44 1484.34 600.911 1486.92 609.108C1489.51 616.874 1490.81 625.071 1490.81 633.7C1490.81 650.957 1487.14 663.253 1479.81 670.587C1472.47 677.49 1462.76 680.941 1450.68 680.941H1277.25ZM1501.91 369.017C1506.23 367.723 1512.92 366.429 1521.98 365.134C1531.47 363.84 1541.17 363.193 1551.1 363.193C1560.59 363.193 1569 363.84 1576.34 365.134C1584.1 366.429 1590.57 369.017 1595.75 372.9C1600.93 376.783 1604.81 382.176 1607.4 389.079C1610.42 395.55 1611.93 404.179 1611.93 414.964V554.101C1611.93 571.79 1616.24 584.517 1624.87 592.282C1633.5 599.617 1646.01 603.284 1662.41 603.284C1672.33 603.284 1680.31 602.421 1686.35 600.695C1692.82 598.97 1697.78 597.244 1701.24 595.518V369.017C1705.55 367.723 1712.24 366.429 1721.3 365.134C1730.79 363.84 1740.5 363.193 1750.42 363.193C1759.91 363.193 1768.32 363.84 1775.66 365.134C1783.42 366.429 1789.89 369.017 1795.07 372.9C1800.25 376.783 1804.13 382.176 1806.72 389.079C1809.74 395.55 1811.25 404.179 1811.25 414.964V611.697C1811.25 633.268 1802.19 649.447 1784.07 660.233C1768.97 669.724 1750.85 676.843 1729.71 681.589C1709 686.766 1686.35 689.354 1661.76 689.354C1638.46 689.354 1616.89 686.766 1597.05 681.589C1577.63 676.411 1560.81 668.43 1546.57 657.644C1532.33 646.858 1521.33 633.053 1513.56 616.227C1505.8 598.97 1501.91 578.261 1501.91 554.101V369.017ZM2003.47 354.78C2021.16 354.78 2038.42 357.369 2055.24 362.546C2072.5 367.291 2087.39 374.626 2099.9 384.549C2112.84 375.92 2127.29 368.801 2143.26 363.193C2159.65 357.584 2179.28 354.78 2202.15 354.78C2218.54 354.78 2234.5 356.937 2250.04 361.251C2266 365.566 2280.02 372.469 2292.1 381.96C2304.61 391.02 2314.53 403.316 2321.87 418.847C2329.2 433.947 2332.87 452.499 2332.87 474.502V678.353C2328.56 679.647 2321.65 680.941 2312.16 682.236C2303.1 683.53 2293.61 684.177 2283.69 684.177C2274.2 684.177 2265.57 683.53 2257.8 682.236C2250.47 680.941 2244.21 678.353 2239.03 674.47C2233.86 670.587 2229.76 665.41 2226.74 658.938C2224.15 652.036 2222.86 643.191 2222.86 632.405V477.738C2222.86 464.795 2219.19 455.519 2211.85 449.91C2204.52 443.87 2194.6 440.85 2182.09 440.85C2176.05 440.85 2169.57 442.36 2162.67 445.38C2155.77 447.969 2150.59 450.773 2147.14 453.793C2147.57 455.519 2147.79 457.245 2147.79 458.97C2147.79 460.265 2147.79 461.559 2147.79 462.853V678.353C2143.04 679.647 2135.92 680.941 2126.43 682.236C2117.37 683.53 2108.09 684.177 2098.6 684.177C2089.11 684.177 2080.48 683.53 2072.72 682.236C2065.38 680.941 2059.13 678.353 2053.95 674.47C2048.77 670.587 2044.67 665.41 2041.65 658.938C2039.07 652.036 2037.77 643.191 2037.77 632.405V477.738C2037.77 464.795 2033.67 455.519 2025.48 449.91C2017.71 443.87 2008.22 440.85 1997 440.85C1989.24 440.85 1982.55 442.145 1976.94 444.733C1971.33 446.89 1966.59 449.048 1962.7 451.205V678.353C1958.39 679.647 1951.49 680.941 1941.99 682.236C1932.93 683.53 1923.44 684.177 1913.52 684.177C1904.03 684.177 1895.4 683.53 1887.63 682.236C1880.3 680.941 1874.04 678.353 1868.87 674.47C1863.69 670.587 1859.59 665.41 1856.57 658.938C1853.98 652.036 1852.69 643.191 1852.69 632.405V436.967C1852.69 425.319 1855.06 416.043 1859.81 409.14C1864.98 402.237 1871.89 395.766 1880.52 389.726C1895.18 379.371 1913.3 370.959 1934.88 364.487C1956.88 358.016 1979.74 354.78 2003.47 354.78ZM2371.51 277.122C2371.51 260.728 2376.9 246.922 2387.69 235.705C2398.9 224.488 2413.57 218.879 2431.69 218.879C2449.81 218.879 2464.26 224.488 2475.05 235.705C2486.27 246.922 2491.88 260.728 2491.88 277.122C2491.88 293.517 2486.27 307.323 2475.05 318.54C2464.26 329.757 2449.81 335.366 2431.69 335.366C2413.57 335.366 2398.9 329.757 2387.69 318.54C2376.9 307.323 2371.51 293.517 2371.51 277.122ZM2486.7 678.353C2481.95 679.216 2474.83 680.294 2465.34 681.589C2456.28 683.314 2447.01 684.177 2437.52 684.177C2428.02 684.177 2419.4 683.53 2411.63 682.236C2404.3 680.941 2398.04 678.353 2392.86 674.47C2387.69 670.587 2383.59 665.41 2380.57 658.938C2377.98 652.036 2376.68 643.191 2376.68 632.405V369.017C2381.43 368.154 2388.33 367.076 2397.39 365.781C2406.88 364.056 2416.38 363.193 2425.87 363.193C2435.36 363.193 2443.77 363.84 2451.11 365.134C2458.87 366.429 2465.34 369.017 2470.52 372.9C2475.7 376.783 2479.58 382.176 2482.17 389.079C2485.19 395.55 2486.7 404.179 2486.7 414.964V678.353ZM2730.17 479.679C2730.17 466.305 2726.29 456.598 2718.52 450.558C2711.19 444.086 2701.05 440.85 2688.11 440.85C2679.48 440.85 2670.85 441.929 2662.22 444.086C2654.02 446.243 2646.91 449.479 2640.87 453.793V678.353C2636.55 679.647 2629.65 680.941 2620.16 682.236C2611.1 683.53 2601.61 684.177 2591.68 684.177C2582.19 684.177 2573.56 683.53 2565.8 682.236C2558.46 680.941 2552.21 678.353 2547.03 674.47C2541.85 670.587 2537.75 665.41 2534.73 658.938C2532.15 652.036 2530.85 643.191 2530.85 632.405V438.262C2530.85 426.613 2533.22 417.122 2537.97 409.787C2543.15 402.453 2550.05 395.766 2558.68 389.726C2573.35 379.371 2591.68 370.959 2613.69 364.487C2636.12 358.016 2660.93 354.78 2688.11 354.78C2736.86 354.78 2774.39 365.566 2800.71 387.137C2827.03 408.277 2840.19 437.83 2840.19 475.796V678.353C2835.87 679.647 2828.97 680.941 2819.48 682.236C2810.42 683.53 2800.93 684.177 2791 684.177C2781.51 684.177 2772.88 683.53 2765.12 682.236C2757.78 680.941 2751.53 678.353 2746.35 674.47C2741.17 670.587 2737.08 665.41 2734.06 658.938C2731.47 652.036 2730.17 643.191 2730.17 632.405V479.679ZM2868.67 521.744C2868.67 493.269 2872.98 468.678 2881.61 447.969C2890.24 426.829 2902.1 409.356 2917.2 395.55C2932.73 381.744 2950.64 371.606 2970.92 365.134C2991.62 358.231 3013.84 354.78 3037.57 354.78C3046.2 354.78 3054.61 355.643 3062.81 357.369C3071.01 358.663 3077.69 360.389 3082.87 362.546V257.708C3087.19 256.414 3094.09 255.119 3103.58 253.825C3113.07 252.099 3122.78 251.237 3132.7 251.237C3142.19 251.237 3150.61 251.884 3157.94 253.178C3165.71 254.472 3172.18 257.061 3177.36 260.944C3182.53 264.827 3186.42 270.22 3189 277.122C3191.59 283.594 3192.89 292.223 3192.89 303.008V609.755C3192.89 630.033 3183.4 646.211 3164.41 658.291C3151.9 666.489 3135.72 673.607 3115.88 679.647C3096.03 686.119 3073.16 689.354 3047.28 689.354C3019.24 689.354 2994 685.471 2971.56 677.706C2949.56 669.94 2930.79 658.723 2915.26 644.054C2900.16 629.385 2888.51 611.913 2880.32 591.635C2872.55 570.927 2868.67 547.629 2868.67 521.744ZM3052.46 440.85C3029.16 440.85 3011.25 447.537 2998.74 460.912C2986.23 474.286 2979.98 494.563 2979.98 521.744C2979.98 548.492 2985.8 568.769 2997.45 582.575C3009.1 595.95 3025.92 602.637 3047.93 602.637C3055.69 602.637 3062.59 601.558 3068.63 599.401C3075.11 596.812 3080.07 594.008 3083.52 590.988V448.616C3074.89 443.439 3064.54 440.85 3052.46 440.85ZM3500.89 585.164C3500.89 617.953 3488.59 643.623 3464 662.174C3439.41 680.726 3403.17 690.001 3355.28 690.001C3337.16 690.001 3320.33 688.707 3304.8 686.119C3289.27 683.53 3275.9 679.647 3264.68 674.47C3253.89 668.861 3245.26 661.958 3238.79 653.761C3232.75 645.564 3229.73 635.857 3229.73 624.64C3229.73 614.285 3231.89 605.657 3236.2 598.754C3240.52 591.42 3245.7 585.38 3251.74 580.634C3264.25 587.537 3278.49 593.792 3294.45 599.401C3310.84 604.578 3329.61 607.167 3350.75 607.167C3364.12 607.167 3374.26 605.225 3381.17 601.342C3388.5 597.46 3392.17 592.282 3392.17 585.811C3392.17 579.771 3389.58 575.025 3384.4 571.574C3379.22 568.122 3370.6 565.318 3358.52 563.161L3339.1 559.278C3301.57 551.944 3273.52 540.511 3254.97 524.979C3236.85 509.016 3227.79 486.366 3227.79 457.029C3227.79 441.066 3231.24 426.613 3238.15 413.67C3245.05 400.727 3254.76 389.942 3267.27 381.313C3279.78 372.684 3294.66 365.997 3311.92 361.251C3329.61 356.506 3349.02 354.133 3370.16 354.133C3386.13 354.133 3401.01 355.427 3414.82 358.016C3429.05 360.173 3441.35 363.624 3451.7 368.37C3462.06 373.116 3470.26 379.371 3476.3 387.137C3482.34 394.472 3485.36 403.316 3485.36 413.67C3485.36 423.593 3483.41 432.222 3479.53 439.556C3476.08 446.459 3471.55 452.283 3465.94 457.029C3462.49 454.872 3457.31 452.715 3450.41 450.558C3443.51 447.969 3435.96 445.812 3427.76 444.086C3419.56 441.929 3411.15 440.203 3402.52 438.909C3394.32 437.615 3386.77 436.967 3379.87 436.967C3365.63 436.967 3354.63 438.693 3346.87 442.145C3339.1 445.165 3335.22 450.126 3335.22 457.029C3335.22 461.775 3337.38 465.658 3341.69 468.678C3346 471.698 3354.2 474.502 3366.28 477.091L3386.34 481.621C3427.76 491.112 3457.1 504.271 3474.35 521.096C3492.04 537.491 3500.89 558.847 3500.89 585.164Z" fill="#143647"/>
<circle cx="2431.15" cy="275.152" r="73.1518" fill="#2C96CF"/>
<mask id="path-5-inside-1_62_2" fill="white">
<path fill-rule="evenodd" clip-rule="evenodd" d="M2441.8 235.118H2420.08V264.499L2390.7 264.499L2390.7 286.224H2420.08V315.606H2441.8V286.224H2471.19V264.499L2441.8 264.499V235.118Z"/>
</mask>
<path fill-rule="evenodd" clip-rule="evenodd" d="M2441.8 235.118H2420.08V264.499L2390.7 264.499L2390.7 286.224H2420.08V315.606H2441.8V286.224H2471.19V264.499L2441.8 264.499V235.118Z" fill="white"/>
<path d="M2420.08 235.118V225.118H2410.08V235.118H2420.08ZM2441.8 235.118H2451.8V225.118H2441.8V235.118ZM2420.08 264.499V274.499H2430.08V264.499H2420.08ZM2390.7 264.499L2390.7 254.499H2380.7V264.499H2390.7ZM2390.7 286.224H2380.7V296.224H2390.7V286.224ZM2420.08 286.224H2430.08V276.224H2420.08V286.224ZM2420.08 315.606H2410.08V325.606H2420.08V315.606ZM2441.8 315.606V325.606H2451.8V315.606H2441.8ZM2441.8 286.224V276.224H2431.8V286.224H2441.8ZM2471.19 286.224V296.224H2481.19V286.224H2471.19ZM2471.19 264.499H2481.19V254.499L2471.19 254.499V264.499ZM2441.8 264.499H2431.8V274.499H2441.8V264.499ZM2420.08 245.118H2441.8V225.118H2420.08V245.118ZM2430.08 264.499V235.118H2410.08V264.499H2430.08ZM2390.7 274.499L2420.08 274.499L2420.08 254.499L2390.7 254.499L2390.7 274.499ZM2400.7 286.224L2400.7 264.499L2380.7 264.499L2380.7 286.224H2400.7ZM2420.08 276.224H2390.7V296.224H2420.08V276.224ZM2430.08 315.606V286.224H2410.08V315.606H2430.08ZM2441.8 305.606H2420.08V325.606H2441.8V305.606ZM2431.8 286.224V315.606H2451.8V286.224H2431.8ZM2471.19 276.224H2441.8V296.224H2471.19V276.224ZM2461.19 264.499V286.224H2481.19V264.499H2461.19ZM2441.8 274.499H2471.19V254.499L2441.8 254.499V274.499ZM2431.8 235.118V264.499H2451.8V235.118H2431.8Z" fill="white" mask="url(#path-5-inside-1_62_2)"/>
<path d="M297.5 480.625L543.65 679.124C609.412 610.305 731.777 507.075 759 467.124C797.5 410.625 761.945 287.544 637.5 327.624C528.5 379.624 152 548.124 222.795 254.218C298.642 51.7608 510.414 151.24 543.65 254.218C580.295 144.242 785.5 55.125 856.5 254.219C865.5 303.125 857.5 335.625 831 373.625" stroke="url(#paint0_linear_62_2)" stroke-width="30" stroke-linecap="round" stroke-linejoin="round"/>
<defs>
<linearGradient id="paint0_linear_62_2" x1="537.022" y1="136" x2="537.022" y2="679.124" gradientUnits="userSpaceOnUse">
<stop stop-color="#FF7A3D"/>
<stop offset="1" stop-color="#FFBD3E"/>
</linearGradient>
</defs>
</svg>
