<svg width="82" height="51" viewBox="0 0 82 51" fill="none" xmlns="http://www.w3.org/2000/svg">
<path d="M38.9175 45.6759C26.3252 52.7095 -6.13795 48.7095 5.42003 13.1456C6.00511 11.8982 7.71232 9.70519 9.86057 10.9129C12.0088 12.1206 11.7345 14.3032 11.3289 15.2435C9.27908 19.4428 6.98524 30.0421 14.2082 38.8453C15.2381 40.0025 17.6041 41.9239 18.8288 40.3523C20.0534 38.7808 18.2114 37.1219 17.1373 36.489C15.8816 35.3826 13.2267 33.3363 15.3556 30.865C17.4845 28.3936 32.7465 39.6685 33.296 43.3969" stroke="#48BCFB" stroke-width="2.26888" stroke-linecap="round" stroke-linejoin="round"/>
<path d="M43.4359 45.6971C52.5113 52.3902 87.6971 48.0877 76.1391 12.5239C75.554 11.2764 73.8468 9.08346 71.6986 10.2911C69.5503 11.4988 69.8246 13.6814 70.2303 14.6218C72.28 18.8211 74.5739 29.4204 67.351 38.2236C66.321 39.3808 63.955 41.3022 62.7304 39.7306C61.5057 38.159 63.3478 36.5002 64.4219 35.8672C65.6776 34.7608 68.3324 32.7146 66.2035 30.2432C64.0746 27.7719 48.8126 39.0468 48.2631 42.7752" stroke="#48BCFB" stroke-width="2.26888" stroke-linecap="round" stroke-linejoin="round"/>
<path d="M22.4682 28.0638L41.0844 43.0762C46.058 37.8715 55.3123 30.0643 57.3712 27.0428C60.2829 22.7698 57.5939 13.4613 48.1822 16.4925C39.9386 20.4252 11.4642 33.1688 16.8184 10.9409C22.5546 -4.3709 38.5708 3.15266 41.0844 10.9408C43.8559 2.62338 59.3754 -4.11647 64.7451 10.9409C65.4257 14.6396 64.8207 17.0976 62.8165 19.9715" stroke="url(#paint0_linear_397_826)" stroke-width="2.26888" stroke-linecap="round" stroke-linejoin="round"/>
<defs>
<linearGradient id="paint0_linear_397_826" x1="40.5832" y1="2.00006" x2="40.5832" y2="43.0762" gradientUnits="userSpaceOnUse">
<stop stop-color="#FF7A3D"/>
<stop offset="1" stop-color="#FFBD3E"/>
</linearGradient>
</defs>
</svg>
